<?xml version="1.0" encoding="UTF-8"?>
<svg xmlns="http://www.w3.org/2000/svg" viewBox="193.9 111.04 1181.37 788.49" color="#ffffff" fill="currentColor">
  <path d="M1028,116.02c.945-.277,1.279.056,1,1,4.363,1.516,6.586,4.404,7,9,9.779,7.638,17.911,17.668,23,28.999,7.37,4.528,13.339,11.749,16,20,4.794,6.151,9.177,12.81,14,19,10.156,8.584,18.177,19.051,24,30.999,1.599,2.049,3.432,3.992,5,6,3.294.689,4.619,1.474,4,5,1.46.231,2.754.809,3.871,1.764l9.893,13.408c2.659-3.483,5.071-4.873,7.237-4.172.581-4.407,4.577-8.058,9-8,2.195-1.873,11.978-10.5,13.678-10.791,2.474-.425,4.045,2.377,5.322,3.792,1.238.034,2.533.212,3.536.999,5.318,4.177,13.14,16.514,15.464,23,5.804,2.882,9.527,7.696,11,14,8.681,10.965,17.357,22.004,26,32.999,1.318,1.677,2.695,3.339,4,5,12.17,10.762,22.439,23.611,30,37.999,3.567.716,5.567,3.382,6,8,10.218,8.086,18.826,19.033,24,30.999,3.179-1.267,8.443,6.961,7.127,9.04-1.805,2.852-8.766-.553-7.127-4.041-4.075.585-7.405-1.93-8-6-6.709-1.761-13.19-6.565-16-13-18.158-10.404-34.711-23.719-49-38.999-10.913-4.855-20.789-12.462-28-22-2.624,1.515-3.863-.272-3-3-8.448-3.837-15.592-8.665-21.431-14.485-1.031,1.047-12.373,7.42-13.569,5.485l-2.171,3.475c-5.058,3.436-17.582,10.298-23.203,11.464-2.595.539-12.709-12.445-12.626-15.939-9.088-6.542-16.902-17.578-21-27.999-7.522-6.441-13.562-14.146-18-22.999-5.907-2.601-10.904-9.608-12-16-10.517-8.188-20.505-19.856-26-31.999l-2.219.243-4.817-7.281-13.796,33.027c-1.367,2.597-3.092,4.932-5.168,7.01-2.519,10.645-6.972,20.872-13,29.999.037,4.129-1.297,7.129-4,9-3.097,13.597-8.439,26.281-16,37.999.195.852.35,1.706.37,2.562.077,3.309-9.672,25.772-12.082,30.898-.698,1.485-2.012,2.56-3.288,3.539.336,2.935-1.274,3.443-3,1-1.625,2.474-2.766,1.869-2-1-1.705.235-3.529-.057-4.973-1.059l-13.579-12.191c-4.311,2.808-8.377,6.12-12.2,9.938l-2.249-.688c-1.042,3.459-3.418,5.516-7,6-9.817,12.391-22.36,23.022-36,30.999.257,3.028-1.743,5.028-6,6h-1c-7.868,10.712-19.14,21-31,26.999-2.488,5.72-6.964,9.452-13,11,1.553,2.554-1.351,5.109-4,4-5.701,7.483-12.741,13.498-21,18-4.031,7.387-11.098,13.158-19,16-3.771,7.354-11.173,14.307-19,17-6.254,9.411-15.773,17.218-26,22-2.194,5.692-7.056,9.686-13,11-8.713,10.845-19.048,19.876-31,26.999.901,2.598.517,3.171-2,2,.131,3.55-2.513,5.761-6,5-1.84,3.855-3.824,7.242-8.17,7.809-8.278,9.195-17.517,18.73-28.83,24.19.878.247.856.583,0,1l-.704,2.004-24.541,20.313c.363,1.774.445,3.668.245,5.683,4.614,2.962,6.586,8.749,6,14,7.683,9.724,14.015,22.765,16,34.999,2.627-.532,2.283,3.926,2,6,7.32,8.631,13.411,20.792,15,31.999,8.25,11.317,13.99,24.329,17,37.999l2.665,1.099c1.882,4.475,3.327,9.108,4.335,13.901l2.134.565c2.522,7.071,5.596,13.927,9.22,20.568l-1.354,1.866c4.377,2.618,6.972,8.015,6,13,2.518,4.151,4.604,8.617,6.257,13.4,4.037,3.61,5.838,8.384,5.743,13.599.78-.105,1.696-.079,2.119.544,2.899,4.268,7.371,17.087,7.881,22.456,4.317,2.355,7.182,8.253,6,13,8.247,11.688,13.979,25.024,17,38.999,3.484,1.223,5.076,4.95,3,8,6.297,5.272-10.01,5.146-16,2-18.938,2.815-38.417,3.363-57.34.546-9.565.192-19.119.01-28.66-.546-9.095,2.365-18.861,3.336-27.862.408-3.765,1.371-7.478,1.231-11.138-.408l-1.016,1.999c-5.516.485-33.95,1.375-36.534-1.443-.327-.356-.421-.926-.45-1.556-2.624,1.53-5.003-.997-7.135-7.582.518-2.436-.29-4.399-2.423-5.887-3.477-10.917-7.713-21.407-12.707-31.472l1.266-2.058c-14.015-25.487-24.929-53.064-33-80.998-3.451-1.182-4.578-3.692-3-7-6.279-7.666-10.049-17.148-11-26.999-5.523-4.621-7.788-12.862-8-20-2.097-.097-3.526-1.879-4.286-5.344-6.994,6.892-14.565,12.34-22.714,16.344-1.821,4.661-5.066,7.21-10,8,1.407,2.465-.447,4.409-3,3-10.6,12.516-23.679,23.021-38,30.999-.635,3.133-2.863,4.63-6,5-.554,1.814-1.466,3.419-2.752,4.805l-20.143,15.429-3.59,15.844-2.515,1.922c1.928,4.409.74,10-3,13,.061,9.668-1.939,18.334-6,25.999,1.852,5.705.031,12.599-4,17l1.536,2.027c-2.18,6.121-3.975,12.337-5.386,18.648l-2.15,1.325c1.689.702,1.145,1.82,0,3-1.703-.087-.508,2.448-1.234,3.757-.467.842-3.659,1.752-4.766,2.243-5.886,2.05-11.219,2.05-16,0l-.674,1.963c-12.381.044-24.765.056-37.151.037l-1.175-2c-22.482,1.449-44.944,1.913-67.384,1.39l-9.616-1.39c-2.751,1.362-6.084,1.362-10,0-1.301,2.768-10.397,2.707-13.487,2.173-8.192,1.106-11.594-8.481-5.513-12.172-.951-12.132,2.345-26.226,8-36.999-.256-13.149,3.224-27.188,9-38.999-.281-1.117-.522-2.237-.619-3.369-.424-4.926,5.24-29.311,7.717-33.804.546-.991,1.208-1.918,1.902-2.827-2.676-1.969-1.035-8.067,2-9l3.858-25.134,2.142-1.866c.624-2.052.452-4.057-.462-6.018,1.893-10.772,4.539-23.62,9.462-32.981.43-17.339,5.222-33.801,11-49.999-.868-9.39,1.228-18.865,6-26.999.56-15.633,4.297-31.022,9.21-45.818.906-10.467,3.411-20.627,7.79-30.18-1.288-3.705-.995-6.431.364-10.276,1.469-4.157,2.298-7.034,3.489-11.198.163-.571.614-1.06,1.147-1.526-1.06-2.976-.727-4.309,1-4-.406-1.845,1.037-11.648,1.497-12.483.19-.344.788-.463,1.503-.517-.309-12.291,2.39-26.056,8-36.999-.007-13.385,2.723-26.7,8-38.999l-1.589-2.171,3.417-14.15,2.172-1.678c2.092-3.943,1.328-12.428,5.43-15.069,4.386-2.824,19.379,0,25.029.111,15.154.297,30.389-.086,45.541-.041,33.243-.138,66.473-.598,99.69-1.381,1.809-.04,2.051,12.762-1.69,12.381.184,6.306-.305,12.468-2.407,18.706l-2.593,2.293c-.052,13.483-3.229,26.824-9,38.999.393,10.57-2.028,20.671-7,29.999.431,3.268.552,6.838-2,9,1.053,7.573-.708,14.682-5,21,.252,5.901-1.261,11.78-4,17,.719,7.922-.896,15.18-5,22,1.334,6.443.334,11.443-3,15l1.305,3.027-3.31,11.577,13.744-12.245,3.262-.358c-.884-2.466.783-4.133,5-5l2.375-3.857c5.976-6.343,13.217-11.709,20.625-16.142,2.094-6.27,9.635-11.13,16-13-.278-.946.055-1.279,1-1,9.551-12.682,22.469-23.918,36-31.999.641-3.821,4.215-6.608,8-6,9.048-11.169,19.707-20.544,32-27.999,1.184-5.505,6.606-9.634,12-11,5.217-8.63,13.766-15.95,23-20-.926-1.787.285-2.983,2-2,3.622-7.127,11.411-13.566,19-16l-.391-2.303c5.805-4.244,11.198-8.919,16.179-14.025l2.212.329,3.361-5.013c6.504-6.258,15-14.192,22.639-17.987,2.013-5.789,7.97-10.714,14-12l1.802-4.157,24.503-19.991c3.615-2.805,7.18-5.755,10.695-8.852l3.559-4.458c9.891-7.689,19.183-16.08,27.877-25.173l5.564-2.368c-.755-2.916,1.653-4.857,4-3,.399-1.034.833-2.047,1.391-2.988.548-.923,1.101-1.811,1.848-2.473,10.979-9.727,22.743-19.693,33.761-28.539l.979-2.527c21.077-17.607,42.122-35.722,63.135-54.345,4.558-3.42,12.191,5.417,12.886,9.873,4.265.028,7.885,3.775,8,8l4.092,1.47c2.689,3.279,5.653,6.264,8.891,8.956,2.845-2.993,5.629-6.031,8.352-9.113l2.665-.314c-1.034-3.167,2.669-7.858,6-7l1.961-4.96c9.013-8.148,17.173-16.77,24.483-25.864l3.556-2.175c.666-2.611,4.059-6.946,7-6,7.542-12.053,18.079-24.299,30-31.999.842-5.188,5.818-9.969,11-11-.099-.494-.158-.981-.076-1.442.493-2.764,18.365-22.326,21.527-24.143l3.549-.414c.566-.453.775-1.913,1.667-1.981.871-.066,2.004,1.018,2.333.981Z"/>
  <path d="M1075,389.014c12.363-3.145,25.621-3.033,38,0,12.422-3.118,26.62-3.296,39,0,11.623-3.027,26.703-3.068,38,1,.873-.448,1.758-.858,2.683-1.132,4.468-1.326,30.094,1.902,34.026,4.33.822.507,1.567,1.137,2.292,1.802.784-.36,1.576-.681,2.399-.867,3.99-.898,31.068,7.005,34.016,9.882.601.587,1.107,1.272,1.585,1.984l3.785-.73c19.65,7.476,37.87,17.801,52.844,32.459,5.861,6.003,14.376,15.249,14.371,23.269,4.68,9.588,8.394,27.288,9,37.999.754,13.327-.159,25.899-2,38.999-1.625,11.563-4.396,22.581-7,33.999,1.746,1.997.564,3.79-2,4l.639,4.133c-1.478,5.599-9.494,29.371-12.613,31.72-.615.463-1.309.82-2.026,1.146,1.203,2.087.702,4-1.503,5.738-2.867,7.794-6.806,15.115-11.815,21.964l-2.682.298c-.884,4.608-4.945,11.277-10,11-7.532,7.717-19.707,17.616-29,22.999-.314.765-.66,1.507-1.122,2.169-3.896,5.585-28.919,13.647-36.878,13.831-.66.76-1.346,1.488-2.119,2.106-3.707,2.961-29.295,10.21-33.976,9.601-.982-.128-1.946-.397-2.905-.707l-5.352,3.183c-9.033,3.116-23.293,4.683-32.648,3.817-11.874,5.209-26.098,7.252-39,6-11.614,4.844-25.502,6.418-38,5-.062.735-.177,2.018-.655,2.106-21.268,3.913-44.809,6.261-66.345,6.894-1.094,2.772-8.561,3.768-10,1l-2.708,2.4c-11.66,1.705-23.022,5.61-32.694,12.451l-3.597.149-.414,2.756c-6.052,5.11-11.568,11.189-14.092,18.837l-2.495,1.406c1.747,1.153,2.055,3.426.924,6.818,6.026-.413,11.718.314,17.076,2.182,12.482-2.842,25.527-2.913,38,0,12.989-2.463,26.013-2.487,39,0,12.646-1.957,25.355-1.969,38,0,12.979-1.962,26.021-1.97,39,0,12.645-1.962,25.355-1.97,38,0,12.645-1.964,25.355-1.975,38,0,12.989-2.472,26.013-2.494,39,0,18.653.032,37.349-.027,56.001.005.334,2.117-.679,4.019-1.001,5.995.962,8.123.157,17.546-5,23.999.565,12.254-3.509,26.965-9,37.999,2.155,4.811.282,13.919-3,18-3.345,5.742-2.589,14.136-4,20,3.129.532-.877,8.71-2.023,9.444-2.611,1.673-12.233,2.57-15.696,2.789-4.029.255-11.644.208-15.607-.304l-1.673-1.929c-.331.027-.671-.034-1,0-11.883,1.704-23.799,2.431-35.827,2l-1.173-2c-23.628,1.268-47.294,1.268-71,0-.035,2.964-4.467,2.774-5,0-15.926,2.416-32.221,3.105-48.13.454-9.634.203-19.257.052-28.87-.454-12.272,3.213-26.658,2.921-39,0-.185.894-.524.858-1,0-12.114.669-24.369.834-36.766.495-.398.839-.8,1.494-1.219,1.505-12.24.307-25.447.416-37.66,0-.413-.014-.805-.673-1.19-1.515l-33.166-.485c-.002,2.927-3.341,2.803-4,0-12.979,1.97-26.022,1.979-39,0-12.341,2.473-24.663,2.51-37,0-5.659,2.169-11.607,2.921-17.33.686-7.143,2.095-14.711,2.074-21.67-.686-1.49,3.719-15.511,3.353-11-2-1.965-1.587-2.372-6.749,1-7-.565-2.088-1.014-4.26-.693-6.423,1.571-10.57,4.803-23.354,9.693-32.576-1.749-3.631-1.113-6.445,2-9,.508-8.933,1.825-17.787,3.951-26.56l2.049-1.439-.563-5.249,7.403-31.193c-.341-2.225.379-3.411,2.16-3.557-1.248-8.89,2.599-19.589,6.919-27.339-.644-4.531,1.397-8.919,5.081-11.661l-1.041-2.808c2.787-6.823,5.95-13.504,9.245-20.094l2.796-1.097c-.294-4.49,2.296-12.532,7-13l-.857-2.277c9.142-10.792,19.304-20.584,30.486-29.376l2.372.653c-.579-4.678,5.949-7.119,10-8l.455-2.706c7.774-4.857,15.774-9.296,24.001-13.317l2.544,1.023c.41-.744.85-1.461,1.395-2.087,2.678-3.075,31.128-13.217,35.192-12.597.82.125,1.619.385,2.412.684.744-.748,1.511-1.462,2.361-2.058.835-.585,1.663-1.131,2.569-1.399,11.219-3.319,22.412-4.837,34.07-5.543,4.387-2.309,10.024-2.284,15-2,6.437-3.997,14.719-5.043,22-3,12.428-4.597,25.815-6.243,39-5,1.862-1.281,3.878-2.255,6.09-2.734,9.523-2.062,22.425-2.614,31.91-1.266,11.911-4.667,26.27-6.248,39-5,.383-2.789,1.096-3.076,3-1l4.789-2.539c9.601-1.177,18.941-3.314,28.021-6.41.909,1.119,1.959,1.506,3.19.949,1.318-2.61,4.108-4.554,8.37-5.83,2.741-2.395,5.618-3.785,8.63-4.169l-.181-2.74c7.978-9.928,11.303-22.884,12.133-35.404l2.048-1.855-2.035-2.038c-.084-17.636-16.005-23.546-31.034-25.206-2.02-.942-3.997-1.861-5.931-2.755-3.082,1.722-8.529,2.789-11-1-2.175.61-4.175.61-6,0-4.101-.63-8.234-.813-12.398-.548-.712,2.594-1.358,1.703-2.602-.452l-3.633,1.323c-18.126.865-36.248.757-54.367-.323-3.889,3.607-11.325,3.56-16,2-1.337.617-2.373,1.464-3.106,2.542-15.231,2.028-28.38,9.066-34.11,23.991l-2.784,1.467c-.912,10.968-3.563,21.31-7.952,31.023-4.195,2.392-25.91,1.619-31.048-1.024-12.468,2.96-25.524,2.89-38,0-12.978,1.992-26.022,1.994-39,0-4.304,1.961-8.7,1.975-13,0-7.923,2.975-17.101,3.086-25,0-4.611,4.378-21.477,3.494-14-6-2.873-2.133-.32-11.114,3-12-1.74-3.635-1.132-6.457,2-9,.52-1.442.07-2.657-1.166-3.69l5.654-22.416,2.512-2.893c-.226-3.341.842-7.687,3-10,.054-8.199,11.767-33.808,17.739-37.112.702-.388,1.472-.655,2.261-.888l-.688-2.449c4.647-6.105,9.703-12.065,15.17-17.882l2.518.331c2.246-6.14,12.862-14.232,18.825-17.365l6.175-1.634c-.975-2.976,9.36-7.6,12.124-8.32l1.876,1.321c.447-.778.925-1.529,1.508-2.186,2.916-3.289,28.543-12.972,32.914-12.446.872.105,1.727.349,2.578.633.366-.628.759-1.23,1.247-1.742,2.207-2.313,33.895-9.444,36.88-8.299.66.253,1.273.63,1.873,1.041,3.684-3.791,11.692-4.563,16.48-3.159l6.52.159c1.7-1.129,5.423-1.271,7,0,5.598-.802,11.264-1.136,17-1,8.496-3.419,20.383-3.069,29,0Z"/>
</svg>
